<?xml version="1.0" encoding="UTF-8" standalone="no"?>
<!DOCTYPE svg PUBLIC "-//W3C//DTD SVG 1.1//EN" "http://www.w3.org/Graphics/SVG/1.1/DTD/svg11.dtd"
[
<!ATTLIST g
  xmlns:vectornator CDATA #FIXED "http://vectornator.io"
  vectornator:layerName CDATA #IMPLIED >
<!ATTLIST g
  xmlns:vectornator CDATA #FIXED "http://vectornator.io"
  vectornator:mask CDATA #IMPLIED >
<!ATTLIST text
  xmlns:vectornator CDATA #FIXED "http://vectornator.io"
  vectornator:width CDATA #IMPLIED >
<!ATTLIST text
  xmlns:vectornator CDATA #FIXED "http://vectornator.io"
  vectornator:text CDATA #IMPLIED >

<!ATTLIST path
  xmlns:vectornator CDATA #FIXED "http://vectornator.io"
  vectornator:blendMode CDATA #IMPLIED >
<!ATTLIST path
  xmlns:vectornator CDATA #FIXED "http://vectornator.io"
  vectornator:shadowColor CDATA #IMPLIED >
<!ATTLIST path
  xmlns:vectornator CDATA #FIXED "http://vectornator.io"
  vectornator:shadowOpacity CDATA #IMPLIED >
<!ATTLIST path
  xmlns:vectornator CDATA #FIXED "http://vectornator.io"
  vectornator:shadowRadius CDATA #IMPLIED >
<!ATTLIST path
  xmlns:vectornator CDATA #FIXED "http://vectornator.io"
  vectornator:shadowOffset CDATA #IMPLIED >
<!ATTLIST path
  xmlns:vectornator CDATA #FIXED "http://vectornator.io"
  vectornator:shadowAngle CDATA #IMPLIED >

<!ATTLIST image
  xmlns:vectornator CDATA #FIXED "http://vectornator.io"
  vectornator:blendMode CDATA #IMPLIED >
<!ATTLIST image
  xmlns:vectornator CDATA #FIXED "http://vectornator.io"
  vectornator:shadowColor CDATA #IMPLIED >
<!ATTLIST image
  xmlns:vectornator CDATA #FIXED "http://vectornator.io"
  vectornator:shadowOpacity CDATA #IMPLIED >
<!ATTLIST image
  xmlns:vectornator CDATA #FIXED "http://vectornator.io"
  vectornator:shadowRadius CDATA #IMPLIED >
<!ATTLIST image
  xmlns:vectornator CDATA #FIXED "http://vectornator.io"
  vectornator:shadowOffset CDATA #IMPLIED >
<!ATTLIST image
  xmlns:vectornator CDATA #FIXED "http://vectornator.io"
  vectornator:shadowAngle CDATA #IMPLIED >

<!ATTLIST g
  xmlns:vectornator CDATA #FIXED "http://vectornator.io"
  vectornator:blendMode CDATA #IMPLIED >
<!ATTLIST g
  xmlns:vectornator CDATA #FIXED "http://vectornator.io"
  vectornator:shadowColor CDATA #IMPLIED >
<!ATTLIST g
  xmlns:vectornator CDATA #FIXED "http://vectornator.io"
  vectornator:shadowOpacity CDATA #IMPLIED >
<!ATTLIST g
  xmlns:vectornator CDATA #FIXED "http://vectornator.io"
  vectornator:shadowRadius CDATA #IMPLIED >
<!ATTLIST g
  xmlns:vectornator CDATA #FIXED "http://vectornator.io"
  vectornator:shadowOffset CDATA #IMPLIED >
<!ATTLIST g
  xmlns:vectornator CDATA #FIXED "http://vectornator.io"
  vectornator:shadowAngle CDATA #IMPLIED >

<!ENTITY % SVG.filter.extra.content  "| feDropShadow" >
<!ELEMENT feDropShadow EMPTY>
<!ATTLIST feDropShadow
  xmlns:svg CDATA #FIXED "http://www.w3.org/Graphics/SVG/1.1/DTD/svg11.dtd"
  dx CDATA #IMPLIED>
<!ATTLIST feDropShadow
  xmlns:svg CDATA #FIXED "http://www.w3.org/Graphics/SVG/1.1/DTD/svg11.dtd"
  dy CDATA #IMPLIED>
<!ATTLIST feDropShadow
  xmlns:svg CDATA #FIXED "http://www.w3.org/Graphics/SVG/1.1/DTD/svg11.dtd"
  stdDeviation CDATA #IMPLIED>
<!ATTLIST feDropShadow
  xmlns:svg CDATA #FIXED "http://www.w3.org/Graphics/SVG/1.1/DTD/svg11.dtd"
  flood-opacity CDATA #IMPLIED>
<!ATTLIST feDropShadow
  xmlns:svg CDATA #FIXED "http://www.w3.org/Graphics/SVG/1.1/DTD/svg11.dtd"
  in CDATA #IMPLIED>
<!ATTLIST feDropShadow
  xmlns:svg CDATA #FIXED "http://www.w3.org/Graphics/SVG/1.1/DTD/svg11.dtd"
  result CDATA #IMPLIED>
<!ATTLIST feDropShadow
  xmlns:svg CDATA #FIXED "http://www.w3.org/Graphics/SVG/1.1/DTD/svg11.dtd"
  flood-color CDATA #IMPLIED>
]
>
<!-- Created with Vectornator (http://vectornator.io/) -->
<svg height="100%" stroke-miterlimit="10" style="fill-rule:nonzero;clip-rule:evenodd;stroke-linecap:round;stroke-linejoin:round;" version="1.1" viewBox="0 0 1490.04 281.414" width="100%" xml:space="preserve" xmlns="http://www.w3.org/2000/svg" xmlns:vectornator="http://vectornator.io" xmlns:xlink="http://www.w3.org/1999/xlink">
<defs>
<clipPath id="TextBounds">
<rect height="291.398" width="1475.23" x="17.021" y="-35.842"/>
</clipPath>
</defs>
<g id="レイヤー-1" vectornator:layerName="レイヤー 1">
<g fill="#22ae10" opacity="1" stroke="#bfbfbf" stroke-linecap="round" stroke-linejoin="miter" stroke-width="1.245">
<path clip-path="url(#TextBounds)" d="M283.093 83.5418C281.709 86.8783 280.082 90.988 278.21 95.8709C276.827 100.591 274.589 107.59 271.496 116.867C266.857 128.83 259.493 146.245 249.401 169.113C239.066 192.388 231.661 209.762 227.185 221.237C223.848 229.782 220.715 236.618 217.785 241.745C213.96 248.499 208.142 251.877 200.329 251.877C195.69 251.877 191.499 250.615 187.756 248.093C183.361 245.163 181.001 241.297 180.676 236.496C176.932 227.137 174.572 219.487 173.596 213.547C170.015 196.131 165.051 169.968 158.703 135.055C153.413 151.413 147.717 166.102 141.613 179.123C132.499 198.654 126.517 213.994 123.669 225.143C124.401 226.934 124.768 228.846 124.768 230.881C124.768 235.926 122.53 240.036 118.054 243.21C114.147 245.895 109.834 247.238 105.114 247.238C99.1735 247.238 94.25 245.733 90.3438 242.721C86.112 239.385 83.9147 234.828 83.752 229.05L79.9678 214.767C77.2823 202.072 72.8877 183.11 66.7842 157.883C61.4131 138.595 52.4206 111.13 39.8067 75.4851C39.0742 73.4506 38.708 71.4161 38.708 69.3816C38.708 64.4988 40.5798 60.6332 44.3233 57.7849C47.6599 55.1807 51.6882 53.8787 56.4082 53.8787C62.5931 53.8787 67.5166 56.4828 71.1787 61.6912C73.2132 64.5395 75.5326 69.7071 78.1367 77.1941C86.112 100.143 95.1045 133.591 105.114 177.536C111.625 161.667 118.257 142.949 125.012 121.384C130.464 103.805 134.899 91.3136 138.317 83.908C146.455 66.1671 154.756 57.2966 163.22 57.2966C171.195 57.2966 177.014 61.6505 180.676 70.3582C182.466 74.5085 184.216 82.0362 185.925 92.9412C186.413 96.2778 187.471 104.456 189.099 117.477C190.808 131.475 195.935 156.947 204.48 193.893C213.106 173.711 224.703 144.618 239.27 106.613C240.165 104.334 242.281 96.8474 245.617 84.1521C247.977 75.0375 250.948 67.8354 254.528 62.5457C258.435 56.849 263.643 54.0007 270.153 54.0007C275.118 54.0007 279.227 55.5266 282.482 58.5784C285.738 61.6301 287.365 65.5567 287.365 70.3582C287.365 72.0671 285.941 76.4617 283.093 83.5418Z" fill-rule="evenodd"/>
<path clip-path="url(#TextBounds)" d="M342.907 172.043C341.524 172.043 338.106 171.758 332.653 171.188C332.165 182.581 331.921 201.299 331.921 227.341C331.921 231.654 330.415 235.357 327.404 238.449C324.393 241.541 320.568 243.088 315.93 243.088C311.291 243.088 307.446 241.541 304.394 238.449C301.342 235.357 299.816 231.654 299.816 227.341L299.816 193.283C299.816 180.669 300.63 161.992 302.258 137.253C303.804 112.106 304.618 93.3481 304.699 80.9783C304.781 59.8194 310.721 49.6876 322.522 50.5828C325.288 49.8503 329.113 49.301 333.996 48.9348C338.879 48.5686 344.82 48.3855 351.818 48.3855C367.769 48.3855 382.743 53.5531 396.74 63.8884C412.284 75.4444 420.056 89.5232 420.056 106.125C420.056 126.958 411.796 143.519 395.275 155.807C380.627 166.631 363.171 172.043 342.907 172.043ZM349.011 79.8796C346.407 79.8796 344.108 79.9 342.114 79.9407C340.12 79.9814 338.431 80.0831 337.048 80.2459C337.048 84.0707 337.007 89.808 336.926 97.4578C336.763 106.491 335.99 120.57 334.606 139.694C338.757 140.345 341.524 140.671 342.907 140.671C355.603 140.671 366.141 137.66 374.523 131.637C383.475 125.208 387.951 116.704 387.951 106.125C387.951 99.2074 383.76 93.0632 375.378 87.6921C367.321 82.4838 358.532 79.8796 349.011 79.8796Z" fill-rule="evenodd"/>
<path clip-path="url(#TextBounds)" d="M542.492 95.8709C538.26 95.8709 526.664 94.7315 507.702 92.4529C506.563 107.427 505.993 127.324 505.993 152.145L505.871 206.955C516.695 206.711 527.722 206.589 538.952 206.589C543.835 206.589 547.884 208.216 551.098 211.471C554.313 214.727 555.92 218.633 555.92 223.19C555.92 227.747 554.313 231.633 551.098 234.848C547.884 238.062 543.835 239.67 538.952 239.67C534.395 239.67 527.559 239.771 518.444 239.975C509.33 240.178 502.494 240.28 497.937 240.28C492.565 240.28 484.509 240.992 473.767 242.416C463.024 243.84 454.968 244.552 449.597 244.552C444.714 244.552 440.665 242.945 437.451 239.731C434.236 236.516 432.629 232.63 432.629 228.073C432.629 223.516 434.236 219.609 437.451 216.354C440.665 213.099 444.714 211.471 449.597 211.471C455.131 211.471 462.414 210.861 471.447 209.64C471.285 200.038 471.203 181.646 471.203 154.465C471.203 132.329 472.017 111.211 473.645 91.1101L447.155 91.8425C442.272 91.8425 438.183 90.2556 434.887 87.0818C431.591 83.908 429.943 79.961 429.943 75.241C429.943 70.4395 431.571 66.5333 434.826 63.5222C437.837 60.7553 441.54 59.1684 445.935 58.7615C453.096 58.1104 465.547 57.7849 483.288 57.7849C499.239 57.7849 519.787 59.4939 544.934 62.9119C554.943 64.2953 559.948 69.9106 559.948 79.7576C559.948 84.9659 557.914 89.0756 553.845 92.0867C550.508 94.6095 546.724 95.8709 542.492 95.8709Z" fill-rule="evenodd"/>
<path clip-path="url(#TextBounds)" d="M853.894 70.8464C852.266 76.7872 851.452 81.9548 851.452 86.3494C851.452 88.628 851.228 92.1477 850.781 96.9085C850.333 101.669 850.109 105.189 850.109 107.468C850.109 115.199 849.703 126.673 848.889 141.891C848.075 157.109 847.668 168.584 847.668 176.315C847.668 182.256 848.116 191.126 849.011 202.927C849.906 214.727 850.354 223.597 850.354 229.538C850.354 234.014 848.767 237.798 845.593 240.89C842.419 243.983 838.472 245.529 833.752 245.529C828.951 245.529 824.8 244.003 821.301 240.951C817.801 237.9 816.052 234.177 816.052 229.782C816.052 223.841 815.787 214.93 815.258 203.049C814.729 191.167 814.465 182.256 814.465 176.315C814.465 171.677 814.546 167.567 814.709 163.986C801.932 164.556 786.145 166.55 767.346 169.968C751.721 172.816 736.096 175.705 720.471 178.635C720.308 184.168 719.738 193.405 718.762 206.344C717.948 217.738 717.541 227.056 717.541 234.299C717.541 238.775 715.954 242.559 712.78 245.651C709.606 248.744 705.66 250.29 700.939 250.29C696.219 250.29 692.272 248.744 689.099 245.651C685.925 242.559 684.338 238.775 684.338 234.299C684.338 226.079 685.05 213.791 686.474 197.433C687.898 181.076 688.61 168.788 688.61 160.568C688.61 150.151 688.855 134.465 689.343 113.51C689.831 92.5546 690.075 76.8686 690.075 66.4519C690.075 61.976 691.662 58.1918 694.836 55.0994C698.01 52.0069 701.957 50.4607 706.677 50.4607C711.397 50.4607 715.344 52.0069 718.518 55.0994C721.691 58.1918 723.278 61.976 723.278 66.4519C723.278 72.6368 723.055 81.9345 722.607 94.345C722.159 106.755 721.936 116.053 721.936 122.238C721.936 124.273 721.651 128.179 721.081 133.957C720.593 139.328 720.389 143.438 720.471 146.286L767.346 137.497C785.656 134.242 801.444 132.37 814.709 131.882C815.035 126.429 815.564 111.781 816.296 87.9363C816.459 81.67 818.371 74.4679 822.033 66.3298C826.591 56.3201 831.758 51.3152 837.536 51.3152C841.849 51.3152 845.674 52.7393 849.011 55.5877C852.591 58.6801 854.382 62.5457 854.382 67.1843C854.382 68.405 854.219 69.6257 853.894 70.8464Z" fill-rule="evenodd"/>
<path clip-path="url(#TextBounds)" d="M980.48 248.215C976.737 248.215 970.796 244.146 962.658 236.008C955.171 239.588 948.579 242.294 942.883 244.125C937.186 245.956 932.344 246.872 928.356 246.872C908.744 246.872 894.034 241.623 884.228 231.125C874.422 220.627 869.519 204.92 869.519 184.006C869.519 164.393 876.761 147.608 891.247 133.652C905.733 119.695 923.067 112.717 943.249 112.717C950.98 112.717 959.932 114.914 970.105 119.308C982.393 124.598 988.537 130.742 988.537 137.741C988.537 140.671 987.601 143.234 985.73 145.431C984.916 148.687 984.285 152.776 983.837 157.699C983.39 162.623 983.166 168.381 983.166 174.972C983.166 190.516 984.265 201.706 986.462 208.542C986.706 209.274 988.578 213.506 992.077 221.237C995.251 228.236 996.838 232.223 996.838 233.2C996.838 237.513 995.19 241.094 991.894 243.942C988.598 246.79 984.794 248.215 980.48 248.215ZM950.207 164.474C950.207 161.87 950.39 158.879 950.756 155.502C951.123 152.125 951.672 148.361 952.404 144.211C950.777 143.397 949.332 142.807 948.071 142.441C946.809 142.074 945.731 141.891 944.836 141.891C933.768 141.891 924.084 146.225 915.783 154.892C907.482 163.559 903.332 173.589 903.332 184.982C903.332 195.887 905.285 204.086 909.191 209.579C913.098 215.073 918.957 217.819 926.77 217.819C931.815 217.819 936.596 216.985 941.113 215.317C945.629 213.648 949.882 211.187 953.869 207.931C951.428 188.563 950.207 174.077 950.207 164.474Z" fill-rule="evenodd"/>
<path clip-path="url(#TextBounds)" d="M1170.18 132.614C1161.63 164.515 1153.05 193.486 1144.42 219.528C1141.98 226.852 1137.99 234.38 1132.46 242.111C1128.55 247.482 1123.34 250.127 1116.83 250.046C1106.58 249.883 1098.52 239.995 1092.66 220.383C1090.47 212.896 1087.86 198.939 1084.85 178.512C1083.14 182.093 1082.08 184.494 1081.68 185.715C1077.45 195.806 1071.26 211.471 1063.12 232.712C1061.9 236.13 1060.07 238.856 1057.63 240.89C1054.21 246.343 1049.12 249.191 1042.37 249.435C1038.55 249.598 1034.52 246.18 1030.29 239.181C1025.81 232.101 1022.19 222.987 1019.42 211.838C1016.9 201.747 1012.99 179.774 1007.7 145.92C1006.56 138.595 1005.99 132.858 1005.99 128.708C1005.99 124.232 1007.68 120.509 1011.06 117.538C1014.44 114.568 1018.49 113.083 1023.21 113.083C1031.99 113.083 1037.41 117.437 1039.44 126.144C1040.5 130.702 1041.39 136.317 1042.13 142.99C1043.1 152.593 1043.71 158.249 1043.96 159.958C1045.02 166.305 1046.64 176.681 1048.84 191.086C1054.86 174.566 1061.78 154.017 1069.59 129.44C1072.93 118.861 1079.19 113.571 1088.39 113.571C1097.42 113.571 1103.36 119.471 1106.21 131.271C1108.25 139.572 1110.4 150.355 1112.68 163.62C1116.02 182.907 1118.05 194.382 1118.79 198.044C1119.52 195.521 1125.91 170.781 1137.95 123.825C1139.74 116.826 1144.83 113.327 1153.21 113.327C1157.85 113.327 1161.94 114.832 1165.48 117.844C1169.02 120.855 1170.79 124.598 1170.79 129.074C1170.79 129.888 1170.58 131.068 1170.18 132.614Z" fill-rule="evenodd"/>
<path clip-path="url(#TextBounds)" d="M1290.42 248.215C1286.67 248.215 1280.73 244.146 1272.59 236.008C1265.11 239.588 1258.52 242.294 1252.82 244.125C1247.12 245.956 1242.28 246.872 1238.29 246.872C1218.68 246.872 1203.97 241.623 1194.16 231.125C1184.36 220.627 1179.46 204.92 1179.46 184.006C1179.46 164.393 1186.7 147.608 1201.18 133.652C1215.67 119.695 1233 112.717 1253.19 112.717C1260.92 112.717 1269.87 114.914 1280.04 119.308C1292.33 124.598 1298.47 130.742 1298.47 137.741C1298.47 140.671 1297.54 143.234 1295.67 145.431C1294.85 148.687 1294.22 152.776 1293.77 157.699C1293.33 162.623 1293.1 168.381 1293.1 174.972C1293.1 190.516 1294.2 201.706 1296.4 208.542C1296.64 209.274 1298.51 213.506 1302.01 221.237C1305.19 228.236 1306.77 232.223 1306.77 233.2C1306.77 237.513 1305.13 241.094 1301.83 243.942C1298.53 246.79 1294.73 248.215 1290.42 248.215ZM1260.14 164.474C1260.14 161.87 1260.33 158.879 1260.69 155.502C1261.06 152.125 1261.61 148.361 1262.34 144.211C1260.71 143.397 1259.27 142.807 1258.01 142.441C1256.75 142.074 1255.67 141.891 1254.77 141.891C1243.7 141.891 1234.02 146.225 1225.72 154.892C1217.42 163.559 1213.27 173.589 1213.27 184.982C1213.27 195.887 1215.22 204.086 1219.13 209.579C1223.03 215.073 1228.89 217.819 1236.71 217.819C1241.75 217.819 1246.53 216.985 1251.05 215.317C1255.57 213.648 1259.82 211.187 1263.81 207.931C1261.36 188.563 1260.14 174.077 1260.14 164.474Z" fill-rule="evenodd"/>
<path clip-path="url(#TextBounds)" d="M1351.82 93.4294C1346.61 93.4294 1342.09 91.6798 1338.27 88.1804C1334.44 84.6811 1332.53 80.4086 1332.53 75.363C1332.53 70.3175 1334.44 66.045 1338.27 62.5457C1342.09 59.0463 1346.61 57.2966 1351.82 57.2966C1357.03 57.2966 1361.52 59.0463 1365.31 62.5457C1369.09 66.045 1370.98 70.3175 1370.98 75.363C1370.98 80.4086 1369.09 84.6811 1365.31 88.1804C1361.52 91.6798 1357.03 93.4294 1351.82 93.4294ZM1362.19 182.907C1362.19 187.546 1362.34 194.992 1362.62 205.246C1362.91 215.5 1363.05 222.946 1363.05 227.585C1363.05 232.305 1361.46 236.191 1358.29 239.242C1355.11 242.294 1351.09 243.82 1346.2 243.82C1341.32 243.82 1337.29 242.294 1334.12 239.242C1330.94 236.191 1329.36 232.305 1329.36 227.585C1329.36 222.946 1329.22 215.5 1328.93 205.246C1328.65 194.992 1328.5 187.546 1328.5 182.907C1328.5 175.664 1328.91 166.59 1329.72 155.685C1330.54 144.78 1330.94 135.706 1330.94 128.464C1330.94 123.744 1332.53 119.858 1335.71 116.806C1338.88 113.754 1342.91 112.228 1347.79 112.228C1352.67 112.228 1356.7 113.754 1359.88 116.806C1363.05 119.858 1364.64 123.744 1364.64 128.464C1364.64 135.706 1364.23 144.78 1363.42 155.685C1362.6 166.59 1362.19 175.664 1362.19 182.907Z" fill-rule="evenodd"/>
<path clip-path="url(#TextBounds)" d="M1421.89 93.4294C1416.68 93.4294 1412.16 91.6798 1408.34 88.1804C1404.51 84.6811 1402.6 80.4086 1402.6 75.363C1402.6 70.3175 1404.51 66.045 1408.34 62.5457C1412.16 59.0463 1416.68 57.2966 1421.89 57.2966C1427.1 57.2966 1431.59 59.0463 1435.38 62.5457C1439.16 66.045 1441.05 70.3175 1441.05 75.363C1441.05 80.4086 1439.16 84.6811 1435.38 88.1804C1431.59 91.6798 1427.1 93.4294 1421.89 93.4294ZM1432.26 182.907C1432.26 187.546 1432.41 194.992 1432.69 205.246C1432.97 215.5 1433.12 222.946 1433.12 227.585C1433.12 232.305 1431.53 236.191 1428.36 239.242C1425.18 242.294 1421.15 243.82 1416.27 243.82C1411.39 243.82 1407.36 242.294 1404.19 239.242C1401.01 236.191 1399.43 232.305 1399.43 227.585C1399.43 222.946 1399.28 215.5 1399 205.246C1398.71 194.992 1398.57 187.546 1398.57 182.907C1398.57 175.664 1398.98 166.59 1399.79 155.685C1400.61 144.78 1401.01 135.706 1401.01 128.464C1401.01 123.744 1402.6 119.858 1405.77 116.806C1408.95 113.754 1412.98 112.228 1417.86 112.228C1422.74 112.228 1426.77 113.754 1429.94 116.806C1433.12 119.858 1434.7 123.744 1434.7 128.464C1434.7 135.706 1434.3 144.78 1433.48 155.685C1432.67 166.59 1432.26 175.664 1432.26 182.907Z" fill-rule="evenodd"/>
</g>
</g>
</svg>
